# File produced by Open Asset Import Library (http://www.assimp.sf.net)
# (assimp v5.0.639693989)

mtllib n1zi1zx9v3po.mtl

# 216 vertex positions
v  1.8060863 0.18671452 1.6893375
v  1.7014961 0.18671431 -0.8229242
v  1.3486013 0.077765651 -1.5947785
v  1.3486009 0.077765897 1.6619667
v  0.68193477 -0.068933666 -2.3502104
v  0.68193454 -0.068933778 -0.81592464
v  0.78467911 -0.046324942 -0.81592453
v  0.78467911 -0.046324935 -0.5439496
v  0.7848075 -0.046296675 -0.54141814
v  0.78367645 -0.046545558 -0.54167414
v  0.68193448 -0.068933807 -0.54316187
v  0.6819343 -0.068933882 0.54268336
v  0.68197006 -0.068925962 0.54267573
v  0.68266541 -0.068772957 0.54253334
v  0.7848075 -0.046296649 0.54141814
v  0.78467911 -0.046324909 0.54394996
v  0.78467911 -0.046324905 0.81592488
v  0.68251151 -0.06880682 0.81592488
v  0.6819343 -0.068933912 0.81592488
v  0.68193412 -0.068933979 1.8261909
v  9.6086985e-08 -0.06893374 -2.9249959
v  -6.6471728e-07 -0.06893412 2.1135833
v  0.51912367 -0.068933941 0.81592482
v  0.51912367 -0.068933912 0.5439499
v  0.5191955 -0.068933912 0.54268342
v  0.67951137 -0.068933807 -0.54268324
v  0.5191955 -0.06893383 -0.54268318
v  0.51912367 -0.06893383 -0.5439496
v  0.51912367 -0.068933807 -0.81592458
v  0.6788193 -0.068933778 -0.81592453
v  -0.68193471 -0.052973002 -2.3502107
v  -0.68193501 -0.052972861 -0.48980027
v  -0.54970431 -0.05606778 -0.48980024
v  -0.54970431 -0.05606778 -0.32653332
v  -0.55009472 -0.056058642 -0.3180877
v  -0.68193501 -0.052972849 -0.3210175
v  -0.68193513 -0.052972801 0.32101783
v  -0.55009472 -0.056058649 0.31808817
v  -0.54970431 -0.056067787 0.32653415
v  -0.54970431 -0.056067791 0.48980102
v  -0.68193513 -0.052972786 0.48980099
v  -0.68193537 -0.052972686 1.8261907
v  -1.3486012 0.077765182 -1.594779
v  -1.3486017 0.077765428 1.6619662
v  -0.71273571 -0.046932578 0.48980108
v  -0.81452554 -0.026970852 0.48980096
v  -0.81452554 -0.026970856 0.32653406
v  -0.81471413 -0.026933875 0.32138395
v  -0.72305357 -0.044909179 0.31362835
v  -0.71258003 -0.046963107 0.31544006
v  -0.71023721 -0.04742258 -0.31586614
v  -0.81111681 -0.027639359 -0.32215676
v  -0.81471413 -0.026933905 -0.32138366
v  -0.81452554 -0.026970888 -0.32653344
v  -0.81452554 -0.026970891 -0.4898003
v  -0.70909405 -0.04764678 -0.48980018
v  -1.8060874 0.18671387 1.689337
v  -1.7014966 0.18671371 -0.82292467
v  1.8060863 0.11105572 1.6893375
v  1.3486009 0.0021071024 1.6619667
v  1.3486013 0.0021068566 -1.5947785
v  1.7014961 0.11105551 -0.8229242
v  0.68193477 -0.12863155 -2.3502104
v  0.68193412 -0.12863123 1.8261909
v  1.1816531e-07 -0.19520703 -2.9249959
v  -6.4263907e-07 -0.19520664 2.1135833
v  -0.68193537 -0.12863147 1.8261907
v  -0.68193471 -0.12863179 -2.3502107
v  -1.3486017 0.0021066307 1.6619662
v  -1.3486012 0.0021063848 -1.594779
v  -1.8060874 0.11105508 1.689337
v  -1.7014966 0.11105491 -0.82292467
v  1.7014961 0.23089696 -0.8229242
v  1.3486013 0.12194831 -1.5947785
v  1.8060863 0.23089717 1.6893375
v  1.3486009 0.12194856 1.6619667
v  0.68193477 -0.0087901037 -2.3502104
v  1.898375 0.23089699 -0.92190874
v  1.504647 0.12194832 -1.7865423
v  0.68193412 -0.0087897889 1.8261909
v  2.0150673 0.23089722 1.8923351
v  1.5046465 0.1219486 1.861674
v  9.7211569e-08 -0.075365573 -2.9249959
v  0.76084101 -0.0087901121 -2.6327801
v  -6.6359286e-07 -0.075365193 2.1135833
v  0.7608403 -0.0087897582 2.0456386
v  2.0150673 0.18671456 1.8923351
v  1.898375 0.18671434 -0.92190874
v  -0.68193471 -0.0087903431 -2.3502107
v  1.5031088e-07 -0.075365596 -3.2766564
v  1.504647 0.077765666 -1.7865423
v  -0.68193537 -0.0087900274 1.8261907
v  -7.0194477e-07 -0.075365171 2.3675768
v  1.5046465 0.077765942 1.861674
v  2.0150673 0.11105576 1.8923351
v  1.898375 0.11105553 -0.92190874
v  0.7608403 -0.052972417 2.0456386
v  -1.3486012 0.12194784 -1.594779
v  0.76084101 -0.052972771 -2.6327801
v  1.504647 0.0021068694 -1.7865423
v  -1.3486017 0.12194809 1.6619662
v  -0.76084155 -0.0087900246 2.0456386
v  -6.9421958e-07 -0.11954783 2.3675768
v  1.5046465 0.0021071448 1.861674
v  2.0150673 0.044781778 1.8901213
v  1.898375 0.044781543 -0.92412233
v  0.7608403 -0.1286312 2.0456383
v  -1.7014966 0.23089637 -0.82292467
v  -0.76084083 -0.0087903775 -2.6327801
v  -1.5046469 0.1219478 -1.7865428
v  1.5803602e-07 -0.11954825 -3.2766564
v  0.76084101 -0.12863155 -2.6327801
v  1.504647 -0.06416712 -1.7887561
v  -1.8060874 0.23089653 1.689337
v  -1.5046474 0.12194808 1.8616735
v  -0.76084155 -0.052972682 2.0456383
v  -6.8099098e-07 -0.19520663 2.3675768
v  1.5046465 -0.064166844 1.8594602
v  1.8060863 0.044781726 1.6871237
v  1.7014961 0.044781517 -0.82513785
v  0.76084036 -0.19490519 2.0434244
v  -1.8983755 0.23089632 -0.92190933
v  -0.76084083 -0.052973036 -2.6327801
v  1.7126462e-07 -0.19520706 -3.2766564
v  0.76084107 -0.19490553 -2.6349938
v  1.3486013 -0.064167134 -1.596992
v  -2.0150683 0.23089652 1.8923343
v  -1.5046474 0.07776542 1.8616735
v  -0.76084155 -0.12863147 2.0456383
v  -6.6906904e-07 -0.26148063 2.3653631
v  1.3486009 -0.064166889 1.659753
v  0.68193418 -0.19490522 1.8239771
v  -1.5046469 0.077765144 -1.7865428
v  -0.76084083 -0.12863182 -2.6327801
v  1.8318664e-07 -0.26148105 -3.2788703
v  0.68193483 -0.19490553 -2.3524246
v  -2.0150683 0.18671386 1.8923343
v  -1.5046474 0.0021066186 1.8616735
v  -0.76084149 -0.19490546 2.0434244
v  -6.3071712e-07 -0.26148066 2.1113696
v  -1.8983755 0.18671367 -0.92190933
v  -1.5046469 0.0021063432 -1.7865428
v  -0.76084077 -0.1949058 -2.6349938
v  1.3008736e-07 -0.26148102 -2.9272096
v  -2.0150683 0.11105506 1.8923343
v  -1.5046474 -0.064167365 1.8594598
v  -0.68193531 -0.19490546 1.8239769
v  -1.8983755 0.11105487 -0.92190933
v  -1.5046469 -0.064167641 -1.7887566
v  -0.68193465 -0.19490577 -2.3524244
v  -2.0150683 0.044781074 1.8901206
v  -1.3486017 -0.064167358 1.6597527
v  -1.8983755 0.04478088 -0.92412293
v  -1.3486012 -0.064167604 -1.5969925
v  -1.8060874 0.044781093 1.6871232
v  -1.7014966 0.044780921 -0.82513833
v  0.7848075 0.14911 -0.33333334
v  0.68012422 0.14832668 -0.33333334
v  0.78370744 -0.028549995 -0.54394895
v  0.78370744 0.16923402 -0.33333239
v  0.78480744 0.2268917 -1.2672475e-08
v  0.68074065 0.22610839 1.0621481e-08
v  0.78370744 -0.028549977 -0.81592381
v  0.67840761 -0.050124131 -0.54394895
v  0.67902416 0.1684507 -0.33333239
v  0.78370738 0.24701571 9.4252113e-07
v  0.7848075 0.14910996 0.33333331
v  0.6813572 0.14832665 0.33333331
v  0.51919544 0.22610836 4.6873023e-08
v  0.5191955 0.14832665 -0.33333325
v  0.67779106 -0.050124113 -0.81592381
v  0.67964059 0.24623241 9.6581505e-07
v  0.78370744 0.16923398 0.33333424
v  0.5191955 0.14832662 0.3333334
v  0.51809537 0.24623238 1.0020666e-06
v  0.51809543 0.16845067 -0.33333227
v  0.51809543 -0.050124161 -0.54394889
v  0.51809543 -0.050124139 -0.81592387
v  0.68025714 0.16845067 0.3333343
v  0.78370744 -0.028550077 0.54395062
v  0.51809543 0.16845064 0.33333439
v  0.68087375 -0.050124213 0.54395062
v  0.78370744 -0.028550098 0.8159256
v  0.51809543 -0.050124243 0.54395062
v  0.68149024 -0.050124232 0.8159256
v  0.51809543 -0.050124262 0.81592554
v  -0.70667791 0.050319117 -0.20010024
v  -0.61003852 0.04353451 -0.2001002
v  -0.74561173 0.055515058 -0.20010027
v  -0.70568484 0.088476367 1.8886165e-07
v  -0.60921645 0.081665784 2.1010931e-07
v  -0.54844809 -0.043127973 -0.32653302
v  -0.60904348 0.10714604 -0.20009965
v  -0.7447896 0.093646325 1.7523301e-07
v  -0.74461663 0.11912659 -0.20009971
v  -0.81291431 -0.010375087 -0.32653305
v  -0.70790976 0.050371066 0.2001006
v  -0.61003858 0.04353448 0.20010063
v  -0.60822141 0.14527731 7.8411568e-07
v  -0.54844809 -0.043127961 -0.48979995
v  -0.70473039 0.11393064 -0.20009968
v  -0.70861775 -0.036369361 -0.32653305
v  -0.7437945 0.15725784 7.4923946e-07
v  -0.74561173 0.055515029 0.20010057
v  -0.81291431 -0.010375075 -0.48979992
v  -0.60904354 0.10714601 0.2001012
v  -0.70373732 0.1520879 7.6286796e-07
v  -0.70800173 -0.036395337 -0.48979992
v  -0.74461663 0.11912657 0.20010111
v  -0.54844809 -0.043128021 0.32653445
v  -0.70596236 0.1139826 0.20010114
v  -0.81291431 -0.010375137 0.32653442
v  -0.71108168 -0.03626544 0.32653439
v  -0.54844809 -0.043128036 0.48980132
v  -0.81291431 -0.010375149 0.48980135
v  -0.71169758 -0.03623946 0.48980135

# 0 UV coordinates

# 216 vertex normals
vn -0.64381844 0.48884532 -0.73937196
vn -0.80950361 0.54985189 0.25837937
vn -0.66402191 0.60594493 0.55018723
vn -0.23456526 0.70888382 -0.83547837
vn -0.46562111 0.69579148 0.68692905
vn -0.078890346 0.72560805 -0.85863274
vn 0.46055484 0.60615861 -0.81447053
vn 0.61253691 0.79000223 -0.03131986
vn 0.84173089 0.096743874 0.66714829
vn -0.17841145 0.38544884 1.1371766
vn 0.0077819703 0.47068706 1.1082335
vn -0.11667218 0.46241638 -1.1040549
vn -0.23615214 0.40549931 -1.1092302
vn -0.18027271 0.33628333 -1.1610594
vn 0.86672568 0.18640716 -0.58108544
vn 0.61253691 0.79000223 0.031319927
vn 0.46061563 0.60612822 0.81447053
vn -0.15195191 0.6905424 0.88822746
vn -0.078890599 0.72560817 0.85863262
vn -0.2388989 0.7325967 -0.80055493
vn 0.010284482 0.59816283 1.00653
vn 0.0092776613 0.63930166 -0.96581811
vn -0.58021814 0.5493331 0.75528079
vn -0.73412287 0.67848736 -0.032853466
vn -0.82555616 0.21057752 -0.65756452
vn 0.074525952 0.37043375 1.1629761
vn -0.8255564 0.21057762 0.65760261
vn -0.73412287 0.67845684 0.032853138
vn -0.58018738 0.54936349 -0.75528103
vn 1.0477137e-08 0.7071138 -0.88818926
vn 0.47346395 0.6893217 0.68873096
vn 0.078554653 0.72099972 -0.86476636
vn 0.59318829 0.525895 -0.76563138
vn 0.69899577 0.69014567 0.23514841
vn 0.67088819 0.2898955 0.85729104
vn 0.088961206 0.40882605 1.1408567
vn 0.089053109 0.40885642 -1.1408567
vn 0.670919 0.2899259 -0.8572908
vn 0.69899589 0.69014567 -0.2351483
vn 0.59321856 0.5258646 0.7656315
vn 0.078554384 0.72096932 0.86480457
vn 0.2424085 0.72762233 -0.80603677
vn 0.65590364 0.61406308 0.55137581
vn 0.22598957 0.71367532 -0.8327564
vn 0.13605127 0.69386894 0.88818914
vn -0.46873403 0.62932217 0.77858859
vn -0.5621205 0.80208737 -0.25312775
vn -0.63893545 0.31412685 -0.88201737
vn 0.069765449 0.26712844 -1.2072917
vn 0.17203295 0.36768696 -1.1479487
vn 0.10278612 0.26877663 1.2029598
vn 0.098086253 0.34104446 1.1743618
vn -0.63863051 0.17838064 0.94024831
vn -0.56212062 0.80208743 0.25312746
vn -0.46873379 0.62932205 -0.77858883
vn 0.13605154 0.69386876 -0.88818926
vn 0.64381856 0.48884556 -0.73937172
vn 0.80950326 0.54985219 0.25837961
vn -0.50498956 -0.63844734 -0.72955793
vn 0.12475993 -0.70513022 -0.87676519
vn -0.47990352 -0.72588283 0.61888415
vn -0.61632127 -0.75490594 0.28141898
vn -0.37607959 -0.71443832 0.74113518
vn -0.083589934 -0.70763272 -0.88128877
vn -4.9740102e-08 -0.5907467 1.0134687
vn 2.5689815e-07 -0.60829496 -0.99698448
vn 0.083590455 -0.70763272 -0.88128877
vn 0.37607959 -0.7144382 0.7411353
vn -0.12475941 -0.70513022 -0.87676519
vn 0.47990358 -0.72588265 0.61888427
vn 0.50499004 -0.63844717 -0.72955781
vn 0.61632138 -0.75490576 0.28141916
vn -0.62764376 0.76842541 0.15659931
vn -0.59462279 0.72991115 0.42341256
vn -0.40430933 0.90655226 -0.15211436
vn -0.17453533 0.71010458 -0.85679269
vn -0.50004601 0.70226139 0.63644153
vn 0.69029808 0.68004405 -0.31024706
vn 0.52092046 0.67302477 -0.65948117
vn -0.26813564 0.68514043 -0.85069746
vn 0.55207962 0.59413451 0.73473316
vn -0.099948369 0.63527334 0.9619078
vn -2.4533369e-07 0.87179178 0.61528057
vn 0.39173558 0.69215977 -0.7613762
vn -3.0185454e-08 0.80950338 -0.73745513
vn 0.08526846 0.69167155 0.90080142
vn 0.70857865 1.9080642e-07 0.88631088
vn 0.95941043 1.4101175e-07 -0.35414082
vn 0.50004554 0.70226157 0.63644165
vn 5.3481088e-08 0.57875293 -1.024356
vn 0.77932078 7.6836443e-08 -0.78709906
vn 0.26813564 0.68514055 -0.85069734
vn -2.5710568e-07 0.61577201 0.98970079
vn 0.073244236 1.0738407e-07 1.252719
vn 0.7063508 -0.0080566956 0.88907099
vn 0.95983768 0.0033876959 -0.35233903
vn 0.25675204 1.3654642e-07 1.2140003
vn 0.59462243 0.72991133 0.42341274
vn 0.61659616 3.3149533e-08 -0.98889571
vn 0.77925974 0.0082095554 -0.78709906
vn 0.17453536 0.71010464 -0.85679269
vn -0.085268967 0.69167155 0.90080142
vn -1.896705e-07 9.4835201e-08 1.2561308
vn 0.075899348 -0.013428036 1.2523739
vn 0.61177403 -0.5547958 0.7082054
vn 0.75441772 -0.63005453 -0.231123
vn 0.25852212 -0.013214378 1.2132721
vn 0.62764353 0.76842564 0.15659949
vn -0.39173558 0.69215965 -0.76137632
vn -0.52092046 0.67302459 -0.65948129
vn 1.896705e-07 -9.4835201e-08 -1.2561308
vn 0.61598575 0.010620474 -0.98939407
vn 0.63417482 -0.65648359 -0.5130403
vn 0.40430909 0.90655237 -0.15211424
vn 0.099947862 0.6352734 0.9619078
vn -0.2567524 4.6762459e-08 1.2140003
vn -1.8720878e-07 -0.013946864 1.2559775
vn 0.23487048 -0.79189414 0.70797539
vn -0.18362963 -0.87417227 -0.56463969
vn -0.60948509 -0.75493646 0.30392176
vn 0.27439192 -0.74419373 0.76494151
vn -0.6902982 0.68004382 -0.31024724
vn -0.6165958 -1.824686e-07 -0.98889595
vn 1.8720878e-07 0.013946864 -1.2559775
vn 0.5021823 -0.67650372 -0.6765402
vn -0.43693346 -0.74727625 0.62881291
vn -0.55208009 0.59413427 0.73473305
vn -0.073244609 8.1771155e-08 1.252719
vn -0.25852248 -0.013214468 1.2132721
vn -2.1497343e-08 -0.67619854 0.92537439
vn 0.050416835 -0.61754209 -0.98594397
vn -0.10403734 -0.67934209 -0.91241699
vn -0.77932054 -1.9568506e-07 -0.7870993
vn -0.61598539 0.010620259 -0.98939431
vn 2.5700857e-07 -0.61217082 -0.99322766
vn -0.34034243 -0.74111146 0.7269128
vn -0.70857888 -5.6977278e-08 0.88631064
vn -0.07589972 -0.013428063 1.2523739
vn -0.27439192 -0.74419385 0.76494139
vn 2.5452357e-07 -0.78838474 -0.77272338
vn -0.95941031 -1.9448552e-07 -0.35414112
vn -0.7792595 0.0082092835 -0.7870993
vn -0.50218183 -0.6765039 -0.67654032
vn 5.7195557e-08 -0.8672139 0.6254012
vn -0.70635104 -0.0080569433 0.88907075
vn -0.23487042 -0.79189426 0.70797527
vn 0.10403785 -0.67934209 -0.91241699
vn -0.95983756 0.0033873601 -0.35233933
vn -0.63417447 -0.65648383 -0.51304054
vn 0.34034243 -0.74111134 0.72691292
vn -0.61177403 -0.55479604 0.70820516
vn -0.050416321 -0.61754209 -0.98594397
vn -0.75441736 -0.63005483 -0.23112324
vn 0.43693352 -0.74727613 0.62881303
vn 0.18363011 -0.87417221 -0.56463969
vn 0.60948521 -0.75493628 0.30392194
vn 0.80605489 -0.50090009 0.39596486
vn 0.010895147 -0.82982874 0.70076829
vn 0.74361396 0.59138781 -0.39174771
vn 0.61238438 0.65993232 -0.54666048
vn 0.79870003 -0.60167229 1.6602533e-07
vn 0.0037539515 -0.99996948 7.6062406e-08
vn 0.50199896 0.65041053 -0.71602565
vn -0.07443472 0.90136409 -0.53585005
vn -0.019440331 0.82793659 -0.70398843
vn 0.62837601 0.77788639 3.6153381e-08
vn 0.81142622 -0.48814344 -0.40366992
vn 0.0031131394 -0.82464069 -0.71050531
vn -0.75502783 -0.65565979 -6.4505116e-08
vn -0.75472265 -0.53581357 0.47539523
vn -0.068575069 0.67961663 -0.91740072
vn -0.0037539515 0.99996948 -7.6062406e-08
vn 0.61214006 0.66008496 0.54685229
vn -0.75472254 -0.53581363 -0.47539541
vn -0.66624969 0.74571967 -1.5690117e-07
vn -0.6629231 0.61537504 -0.53558183
vn -0.84661394 0.48274159 -0.28134248
vn -0.59431744 0.56273061 -0.72166109
vn -0.019715209 0.82790619 0.70402664
vn 0.74236256 0.59227288 0.39331964
vn -0.66292322 0.61537516 0.53558147
vn -0.076265991 0.90124208 0.53577328
vn 0.50022864 0.6520586 0.71560395
vn -0.84661406 0.48274165 0.2813805
vn -0.07071165 0.67836547 0.91858894
vn -0.59431767 0.56270021 0.72169906
vn -0.092928812 -0.86519969 0.61888421
vn 0.59971923 -0.55723727 0.72135437
vn -0.66338086 -0.52525413 0.6693716
vn -0.10156543 -0.99481183 -0.00011494595
vn 0.73561829 -0.67735821 -3.8173028e-05
vn 0.86825156 0.4932403 0.066588409
vn 0.63960683 0.64925081 -0.51691228
vn -0.80797744 -0.58915997 -7.6748009e-05
vn -0.55125588 0.72582161 -0.51679748
vn -0.76650298 0.64104116 0.048800595
vn -0.081758842 -0.86062205 -0.63130462
vn 0.5997805 -0.55717635 -0.72131568
vn 0.69029802 0.7235024 3.8384849e-05
vn 0.61751151 0.53715634 -0.72166085
vn 0.093081415 0.81667525 -0.71537399
vn 0.12259278 0.88225961 -0.57088846
vn -0.60240495 0.798181 0.0001148545
vn -0.66872138 -0.50566137 -0.68466747
vn -0.4741661 0.67104089 -0.71591073
vn 0.63954568 0.64928144 0.51698911
vn 0.10031417 0.9949339 0.00011494575
vn 0.097079404 0.67616802 -0.91736239
vn -0.55040151 0.7262184 0.51733398
vn 0.86825156 0.4932403 -0.066588216
vn 0.093996756 0.81630915 0.71587223
vn -0.76540434 0.64241451 -0.047344185
vn 0.12460683 0.88192397 0.57100332
vn 0.61751127 0.53715646 0.72166097
vn -0.47227418 0.67250586 0.71571881
vn 0.099337488 0.67473376 0.91862726

# Mesh 'Plane' with 12 faces
g Plane
usemtl woodenPart
f  1//1 2//2 3//3 4//4
f  5//5 6//6 7//7 8//8 9//9 10//10 11//11 12//12 13//13 14//14 15//15 16//16 17//17 18//18 19//19 20//20 4//4 3//3
f  21//21 22//22 20//20 19//19 23//23 24//24 25//25 12//12 11//11 26//26 27//27 28//28 29//29 30//30 6//6 5//5
f  21//21 31//31 32//32 33//33 34//34 35//35 36//36 37//37 38//38 39//39 40//40 41//41 42//42 22//22
f  31//31 43//43 44//44 42//42 41//41 45//45 46//46 47//47 48//48 49//49 50//50 37//37 36//36 51//51 52//52 53//53 54//54 55//55 56//56 32//32
f  57//57 44//44 43//43 58//58
f  59//59 60//60 61//61 62//62
f  63//63 61//61 60//60 64//64
f  65//65 63//63 64//64 66//66
f  65//65 66//66 67//67 68//68
f  68//68 67//67 69//69 70//70
f  71//71 72//72 70//70 69//69

# Mesh 'Plane' with 98 faces
g Plane
usemtl ironEdges
f  3//3 2//2 73//73 74//74
f  2//2 1//1 75//75 73//73
f  1//1 4//4 76//76 75//75
f  5//5 3//3 74//74 77//77
f  73//73 78//78 79//79 74//74
f  4//4 20//20 80//80 76//76
f  73//73 75//75 81//81 78//78
f  76//76 82//82 81//81 75//75
f  21//21 5//5 77//77 83//83
f  74//74 79//79 84//84 77//77
f  20//20 22//22 85//85 80//80
f  80//80 86//86 82//82 76//76
f  87//87 88//88 78//78 81//81
f  31//31 21//21 83//83 89//89
f  77//77 84//84 90//90 83//83
f  88//88 91//91 79//79 78//78
f  22//22 42//42 92//92 85//85
f  85//85 93//93 86//86 80//80
f  94//94 87//87 81//81 82//82
f  88//88 87//87 95//95 96//96
f  97//97 94//94 82//82 86//86
f  43//43 31//31 89//89 98//98
f  91//91 99//99 84//84 79//79
f  91//91 88//88 96//96 100//100
f  42//42 44//44 101//101 92//92
f  93//93 85//85 92//92 102//102
f  103//103 97//97 86//86 93//93
f  87//87 94//94 104//104 95//95
f  96//96 95//95 105//105 106//106
f  94//94 97//97 107//107 104//104
f  58//58 43//43 98//98 108//108
f  89//89 109//109 110//110 98//98
f  109//109 89//89 83//83 90//90
f  99//99 111//111 90//90 84//84
f  99//99 91//91 100//100 112//112
f  100//100 96//96 106//106 113//113
f  44//44 57//57 114//114 101//101
f  102//102 92//92 101//101 115//115
f  116//116 103//103 93//93 102//102
f  97//97 103//103 117//117 107//107
f  95//95 104//104 118//118 105//105
f  119//119 120//120 106//106 105//105
f  104//104 107//107 121//121 118//118
f  57//57 58//58 108//108 114//114
f  98//98 110//110 122//122 108//108
f  111//111 123//123 109//109 90//90
f  111//111 99//99 112//112 124//124
f  112//112 100//100 113//113 125//125
f  106//106 120//120 126//126 113//113
f  114//114 127//127 115//115 101//101
f  128//128 116//116 102//102 115//115
f  116//116 129//129 117//117 103//103
f  107//107 117//117 130//130 121//121
f  118//118 131//131 119//119 105//105
f  59//59 62//62 120//120 119//119
f  121//121 132//132 131//131 118//118
f  114//114 108//108 122//122 127//127
f  123//123 133//133 110//110 109//109
f  111//111 124//124 134//134 123//123
f  124//124 112//112 125//125 135//135
f  113//113 126//126 136//136 125//125
f  137//137 128//128 115//115 127//127
f  128//128 138//138 129//129 116//116
f  117//117 129//129 139//139 130//130
f  130//130 140//140 132//132 121//121
f  60//60 59//59 119//119 131//131
f  62//62 61//61 126//126 120//120
f  141//141 137//137 127//127 122//122
f  133//133 141//141 122//122 110//110
f  123//123 134//134 142//142 133//133
f  134//134 124//124 135//135 143//143
f  125//125 136//136 144//144 135//135
f  137//137 145//145 138//138 128//128
f  129//129 138//138 146//146 139//139
f  140//140 130//130 139//139 147//147
f  64//64 60//60 131//131 132//132
f  61//61 63//63 136//136 126//126
f  66//66 64//64 132//132 140//140
f  141//141 148//148 145//145 137//137
f  133//133 142//142 148//148 141//141
f  142//142 134//134 143//143 149//149
f  135//135 144//144 150//150 143//143
f  138//138 145//145 151//151 146//146
f  147//147 139//139 146//146 152//152
f  67//67 66//66 140//140 147//147
f  63//63 65//65 144//144 136//136
f  145//145 148//148 153//153 151//151
f  148//148 142//142 149//149 153//153
f  143//143 150//150 154//154 149//149
f  151//151 155//155 152//152 146//146
f  69//69 67//67 147//147 152//152
f  65//65 68//68 150//150 144//144
f  156//156 155//155 151//151 153//153
f  149//149 154//154 156//156 153//153
f  71//71 69//69 152//152 155//155
f  68//68 70//70 154//154 150//150
f  72//72 71//71 155//155 156//156
f  70//70 72//72 156//156 154//154

# Mesh 'Plane' with 76 faces
g Plane
usemtl leatherFittings
f  9//9 157//157 158//158 10//10
f  8//8 159//159 160//160 157//157 9//9
f  157//157 161//161 162//162 158//158
f  10//10 158//158 26//26 11//11
f  7//7 163//163 159//159 8//8
f  160//160 159//159 164//164 165//165
f  161//161 157//157 160//160 166//166
f  161//161 167//167 168//168 162//162
f  162//162 169//169 170//170 158//158
f  26//26 158//158 170//170 27//27
f  30//30 171//171 163//163 7//7 6//6
f  159//159 163//163 171//171 164//164
f  160//160 165//165 172//172 166//166
f  167//167 161//161 166//166 173//173
f  13//13 168//168 167//167 14//14
f  168//168 174//174 169//169 162//162
f  170//170 169//169 175//175 176//176
f  27//27 170//170 176//176 177//177 28//28
f  29//29 178//178 171//171 30//30
f  165//165 164//164 177//177 176//176
f  172//172 165//165 176//176 175//175
f  166//166 172//172 179//179 173//173
f  15//15 167//167 173//173 180//180 16//16
f  25//25 174//174 168//168 13//13 12//12
f  14//14 167//167 15//15
f  169//169 174//174 181//181 175//175
f  28//28 177//177 178//178 29//29
f  164//164 171//171 178//178 177//177
f  179//179 172//172 175//175 181//181
f  180//180 173//173 179//179 182//182
f  16//16 180//180 183//183 17//17
f  24//24 184//184 181//181 174//174 25//25
f  182//182 179//179 181//181 184//184
f  183//183 180//180 182//182 185//185
f  17//17 183//183 185//185 18//18
f  23//23 186//186 184//184 24//24
f  185//185 182//182 184//184 186//186
f  18//18 185//185 186//186 23//23 19//19
f  51//51 187//187 52//52
f  187//187 51//51 36//36 35//35 188//188
f  52//52 187//187 189//189 53//53
f  190//190 187//187 188//188 191//191
f  34//34 192//192 193//193 188//188 35//35
f  189//189 187//187 190//190 194//194
f  53//53 189//189 195//195 196//196 54//54
f  197//197 190//190 191//191 198//198
f  188//188 193//193 199//199 191//191
f  33//33 200//200 192//192 34//34
f  201//201 193//193 192//192 202//202
f  194//194 203//203 195//195 189//189
f  194//194 190//190 197//197 204//204
f  195//195 201//201 202//202 196//196
f  54//54 196//196 205//205 55//55
f  50//50 197//197 198//198 38//38 37//37
f  191//191 199//199 206//206 198//198
f  207//207 199//199 193//193 201//201
f  56//56 208//208 200//200 33//33 32//32
f  202//202 192//192 200//200 208//208
f  204//204 209//209 203//203 194//194
f  195//195 203//203 207//207 201//201
f  49//49 204//204 197//197 50//50
f  196//196 202//202 208//208 205//205
f  55//55 205//205 208//208 56//56
f  38//38 198//198 206//206 210//210 39//39
f  211//211 206//206 199//199 207//207
f  47//47 212//212 209//209 204//204 48//48
f  203//203 209//209 211//211 207//207
f  48//48 204//204 49//49
f  213//213 210//210 206//206 211//211
f  39//39 210//210 214//214 40//40
f  46//46 215//215 212//212 47//47
f  212//212 213//213 211//211 209//209
f  216//216 214//214 210//210 213//213
f  40//40 214//214 216//216 45//45 41//41
f  45//45 216//216 215//215 46//46
f  213//213 212//212 215//215 216//216

